# GTA-style mission marker replacement mesh
# Unity axes: Y up, bottom-center pivot, radius 1, height 2.5
o GTA_MissionMarker_Cylinder
v 1.00000000 0.00000000 0.00000000
v 1.00000000 2.50000000 0.00000000
v 0.99518473 0.00000000 0.09801714
v 0.99518473 2.50000000 0.09801714
v 0.98078528 0.00000000 0.19509032
v 0.98078528 2.50000000 0.19509032
v 0.95694034 0.00000000 0.29028468
v 0.95694034 2.50000000 0.29028468
v 0.92387953 0.00000000 0.38268343
v 0.92387953 2.50000000 0.38268343
v 0.88192126 0.00000000 0.47139674
v 0.88192126 2.50000000 0.47139674
v 0.83146961 0.00000000 0.55557023
v 0.83146961 2.50000000 0.55557023
v 0.77301045 0.00000000 0.63439328
v 0.77301045 2.50000000 0.63439328
v 0.70710678 0.00000000 0.70710678
v 0.70710678 2.50000000 0.70710678
v 0.63439328 0.00000000 0.77301045
v 0.63439328 2.50000000 0.77301045
v 0.55557023 0.00000000 0.83146961
v 0.55557023 2.50000000 0.83146961
v 0.47139674 0.00000000 0.88192126
v 0.47139674 2.50000000 0.88192126
v 0.38268343 0.00000000 0.92387953
v 0.38268343 2.50000000 0.92387953
v 0.29028468 0.00000000 0.95694034
v 0.29028468 2.50000000 0.95694034
v 0.19509032 0.00000000 0.98078528
v 0.19509032 2.50000000 0.98078528
v 0.09801714 0.00000000 0.99518473
v 0.09801714 2.50000000 0.99518473
v 0.00000000 0.00000000 1.00000000
v 0.00000000 2.50000000 1.00000000
v -0.09801714 0.00000000 0.99518473
v -0.09801714 2.50000000 0.99518473
v -0.19509032 0.00000000 0.98078528
v -0.19509032 2.50000000 0.98078528
v -0.29028468 0.00000000 0.95694034
v -0.29028468 2.50000000 0.95694034
v -0.38268343 0.00000000 0.92387953
v -0.38268343 2.50000000 0.92387953
v -0.47139674 0.00000000 0.88192126
v -0.47139674 2.50000000 0.88192126
v -0.55557023 0.00000000 0.83146961
v -0.55557023 2.50000000 0.83146961
v -0.63439328 0.00000000 0.77301045
v -0.63439328 2.50000000 0.77301045
v -0.70710678 0.00000000 0.70710678
v -0.70710678 2.50000000 0.70710678
v -0.77301045 0.00000000 0.63439328
v -0.77301045 2.50000000 0.63439328
v -0.83146961 0.00000000 0.55557023
v -0.83146961 2.50000000 0.55557023
v -0.88192126 0.00000000 0.47139674
v -0.88192126 2.50000000 0.47139674
v -0.92387953 0.00000000 0.38268343
v -0.92387953 2.50000000 0.38268343
v -0.95694034 0.00000000 0.29028468
v -0.95694034 2.50000000 0.29028468
v -0.98078528 0.00000000 0.19509032
v -0.98078528 2.50000000 0.19509032
v -0.99518473 0.00000000 0.09801714
v -0.99518473 2.50000000 0.09801714
v -1.00000000 0.00000000 0.00000000
v -1.00000000 2.50000000 0.00000000
v -0.99518473 0.00000000 -0.09801714
v -0.99518473 2.50000000 -0.09801714
v -0.98078528 0.00000000 -0.19509032
v -0.98078528 2.50000000 -0.19509032
v -0.95694034 0.00000000 -0.29028468
v -0.95694034 2.50000000 -0.29028468
v -0.92387953 0.00000000 -0.38268343
v -0.92387953 2.50000000 -0.38268343
v -0.88192126 0.00000000 -0.47139674
v -0.88192126 2.50000000 -0.47139674
v -0.83146961 0.00000000 -0.55557023
v -0.83146961 2.50000000 -0.55557023
v -0.77301045 0.00000000 -0.63439328
v -0.77301045 2.50000000 -0.63439328
v -0.70710678 0.00000000 -0.70710678
v -0.70710678 2.50000000 -0.70710678
v -0.63439328 0.00000000 -0.77301045
v -0.63439328 2.50000000 -0.77301045
v -0.55557023 0.00000000 -0.83146961
v -0.55557023 2.50000000 -0.83146961
v -0.47139674 0.00000000 -0.88192126
v -0.47139674 2.50000000 -0.88192126
v -0.38268343 0.00000000 -0.92387953
v -0.38268343 2.50000000 -0.92387953
v -0.29028468 0.00000000 -0.95694034
v -0.29028468 2.50000000 -0.95694034
v -0.19509032 0.00000000 -0.98078528
v -0.19509032 2.50000000 -0.98078528
v -0.09801714 0.00000000 -0.99518473
v -0.09801714 2.50000000 -0.99518473
v -0.00000000 0.00000000 -1.00000000
v -0.00000000 2.50000000 -1.00000000
v 0.09801714 0.00000000 -0.99518473
v 0.09801714 2.50000000 -0.99518473
v 0.19509032 0.00000000 -0.98078528
v 0.19509032 2.50000000 -0.98078528
v 0.29028468 0.00000000 -0.95694034
v 0.29028468 2.50000000 -0.95694034
v 0.38268343 0.00000000 -0.92387953
v 0.38268343 2.50000000 -0.92387953
v 0.47139674 0.00000000 -0.88192126
v 0.47139674 2.50000000 -0.88192126
v 0.55557023 0.00000000 -0.83146961
v 0.55557023 2.50000000 -0.83146961
v 0.63439328 0.00000000 -0.77301045
v 0.63439328 2.50000000 -0.77301045
v 0.70710678 0.00000000 -0.70710678
v 0.70710678 2.50000000 -0.70710678
v 0.77301045 0.00000000 -0.63439328
v 0.77301045 2.50000000 -0.63439328
v 0.83146961 0.00000000 -0.55557023
v 0.83146961 2.50000000 -0.55557023
v 0.88192126 0.00000000 -0.47139674
v 0.88192126 2.50000000 -0.47139674
v 0.92387953 0.00000000 -0.38268343
v 0.92387953 2.50000000 -0.38268343
v 0.95694034 0.00000000 -0.29028468
v 0.95694034 2.50000000 -0.29028468
v 0.98078528 0.00000000 -0.19509032
v 0.98078528 2.50000000 -0.19509032
v 0.99518473 0.00000000 -0.09801714
v 0.99518473 2.50000000 -0.09801714
v 1.00000000 0.00000000 -0.00000000
v 1.00000000 2.50000000 -0.00000000
v 0.00000000 0.00000000 0.00000000
v 1.00000000 0.00000000 0.00000000
v 0.99518473 0.00000000 0.09801714
v 0.98078528 0.00000000 0.19509032
v 0.95694034 0.00000000 0.29028468
v 0.92387953 0.00000000 0.38268343
v 0.88192126 0.00000000 0.47139674
v 0.83146961 0.00000000 0.55557023
v 0.77301045 0.00000000 0.63439328
v 0.70710678 0.00000000 0.70710678
v 0.63439328 0.00000000 0.77301045
v 0.55557023 0.00000000 0.83146961
v 0.47139674 0.00000000 0.88192126
v 0.38268343 0.00000000 0.92387953
v 0.29028468 0.00000000 0.95694034
v 0.19509032 0.00000000 0.98078528
v 0.09801714 0.00000000 0.99518473
v 0.00000000 0.00000000 1.00000000
v -0.09801714 0.00000000 0.99518473
v -0.19509032 0.00000000 0.98078528
v -0.29028468 0.00000000 0.95694034
v -0.38268343 0.00000000 0.92387953
v -0.47139674 0.00000000 0.88192126
v -0.55557023 0.00000000 0.83146961
v -0.63439328 0.00000000 0.77301045
v -0.70710678 0.00000000 0.70710678
v -0.77301045 0.00000000 0.63439328
v -0.83146961 0.00000000 0.55557023
v -0.88192126 0.00000000 0.47139674
v -0.92387953 0.00000000 0.38268343
v -0.95694034 0.00000000 0.29028468
v -0.98078528 0.00000000 0.19509032
v -0.99518473 0.00000000 0.09801714
v -1.00000000 0.00000000 0.00000000
v -0.99518473 0.00000000 -0.09801714
v -0.98078528 0.00000000 -0.19509032
v -0.95694034 0.00000000 -0.29028468
v -0.92387953 0.00000000 -0.38268343
v -0.88192126 0.00000000 -0.47139674
v -0.83146961 0.00000000 -0.55557023
v -0.77301045 0.00000000 -0.63439328
v -0.70710678 0.00000000 -0.70710678
v -0.63439328 0.00000000 -0.77301045
v -0.55557023 0.00000000 -0.83146961
v -0.47139674 0.00000000 -0.88192126
v -0.38268343 0.00000000 -0.92387953
v -0.29028468 0.00000000 -0.95694034
v -0.19509032 0.00000000 -0.98078528
v -0.09801714 0.00000000 -0.99518473
v -0.00000000 0.00000000 -1.00000000
v 0.09801714 0.00000000 -0.99518473
v 0.19509032 0.00000000 -0.98078528
v 0.29028468 0.00000000 -0.95694034
v 0.38268343 0.00000000 -0.92387953
v 0.47139674 0.00000000 -0.88192126
v 0.55557023 0.00000000 -0.83146961
v 0.63439328 0.00000000 -0.77301045
v 0.70710678 0.00000000 -0.70710678
v 0.77301045 0.00000000 -0.63439328
v 0.83146961 0.00000000 -0.55557023
v 0.88192126 0.00000000 -0.47139674
v 0.92387953 0.00000000 -0.38268343
v 0.95694034 0.00000000 -0.29028468
v 0.98078528 0.00000000 -0.19509032
v 0.99518473 0.00000000 -0.09801714
vt 0.00000000 0.00000000
vt 0.00000000 1.00000000
vt 0.01562500 0.00000000
vt 0.01562500 1.00000000
vt 0.03125000 0.00000000
vt 0.03125000 1.00000000
vt 0.04687500 0.00000000
vt 0.04687500 1.00000000
vt 0.06250000 0.00000000
vt 0.06250000 1.00000000
vt 0.07812500 0.00000000
vt 0.07812500 1.00000000
vt 0.09375000 0.00000000
vt 0.09375000 1.00000000
vt 0.10937500 0.00000000
vt 0.10937500 1.00000000
vt 0.12500000 0.00000000
vt 0.12500000 1.00000000
vt 0.14062500 0.00000000
vt 0.14062500 1.00000000
vt 0.15625000 0.00000000
vt 0.15625000 1.00000000
vt 0.17187500 0.00000000
vt 0.17187500 1.00000000
vt 0.18750000 0.00000000
vt 0.18750000 1.00000000
vt 0.20312500 0.00000000
vt 0.20312500 1.00000000
vt 0.21875000 0.00000000
vt 0.21875000 1.00000000
vt 0.23437500 0.00000000
vt 0.23437500 1.00000000
vt 0.25000000 0.00000000
vt 0.25000000 1.00000000
vt 0.26562500 0.00000000
vt 0.26562500 1.00000000
vt 0.28125000 0.00000000
vt 0.28125000 1.00000000
vt 0.29687500 0.00000000
vt 0.29687500 1.00000000
vt 0.31250000 0.00000000
vt 0.31250000 1.00000000
vt 0.32812500 0.00000000
vt 0.32812500 1.00000000
vt 0.34375000 0.00000000
vt 0.34375000 1.00000000
vt 0.35937500 0.00000000
vt 0.35937500 1.00000000
vt 0.37500000 0.00000000
vt 0.37500000 1.00000000
vt 0.39062500 0.00000000
vt 0.39062500 1.00000000
vt 0.40625000 0.00000000
vt 0.40625000 1.00000000
vt 0.42187500 0.00000000
vt 0.42187500 1.00000000
vt 0.43750000 0.00000000
vt 0.43750000 1.00000000
vt 0.45312500 0.00000000
vt 0.45312500 1.00000000
vt 0.46875000 0.00000000
vt 0.46875000 1.00000000
vt 0.48437500 0.00000000
vt 0.48437500 1.00000000
vt 0.50000000 0.00000000
vt 0.50000000 1.00000000
vt 0.51562500 0.00000000
vt 0.51562500 1.00000000
vt 0.53125000 0.00000000
vt 0.53125000 1.00000000
vt 0.54687500 0.00000000
vt 0.54687500 1.00000000
vt 0.56250000 0.00000000
vt 0.56250000 1.00000000
vt 0.57812500 0.00000000
vt 0.57812500 1.00000000
vt 0.59375000 0.00000000
vt 0.59375000 1.00000000
vt 0.60937500 0.00000000
vt 0.60937500 1.00000000
vt 0.62500000 0.00000000
vt 0.62500000 1.00000000
vt 0.64062500 0.00000000
vt 0.64062500 1.00000000
vt 0.65625000 0.00000000
vt 0.65625000 1.00000000
vt 0.67187500 0.00000000
vt 0.67187500 1.00000000
vt 0.68750000 0.00000000
vt 0.68750000 1.00000000
vt 0.70312500 0.00000000
vt 0.70312500 1.00000000
vt 0.71875000 0.00000000
vt 0.71875000 1.00000000
vt 0.73437500 0.00000000
vt 0.73437500 1.00000000
vt 0.75000000 0.00000000
vt 0.75000000 1.00000000
vt 0.76562500 0.00000000
vt 0.76562500 1.00000000
vt 0.78125000 0.00000000
vt 0.78125000 1.00000000
vt 0.79687500 0.00000000
vt 0.79687500 1.00000000
vt 0.81250000 0.00000000
vt 0.81250000 1.00000000
vt 0.82812500 0.00000000
vt 0.82812500 1.00000000
vt 0.84375000 0.00000000
vt 0.84375000 1.00000000
vt 0.85937500 0.00000000
vt 0.85937500 1.00000000
vt 0.87500000 0.00000000
vt 0.87500000 1.00000000
vt 0.89062500 0.00000000
vt 0.89062500 1.00000000
vt 0.90625000 0.00000000
vt 0.90625000 1.00000000
vt 0.92187500 0.00000000
vt 0.92187500 1.00000000
vt 0.93750000 0.00000000
vt 0.93750000 1.00000000
vt 0.95312500 0.00000000
vt 0.95312500 1.00000000
vt 0.96875000 0.00000000
vt 0.96875000 1.00000000
vt 0.98437500 0.00000000
vt 0.98437500 1.00000000
vt 1.00000000 0.00000000
vt 1.00000000 1.00000000
vt 0.50000000 0.50000000
vt 1.00000000 0.50000000
vt 0.99759236 0.54900857
vt 0.99039264 0.59754516
vt 0.97847017 0.64514234
vt 0.96193977 0.69134172
vt 0.94096063 0.73569837
vt 0.91573481 0.77778512
vt 0.88650523 0.81719664
vt 0.85355339 0.85355339
vt 0.81719664 0.88650523
vt 0.77778512 0.91573481
vt 0.73569837 0.94096063
vt 0.69134172 0.96193977
vt 0.64514234 0.97847017
vt 0.59754516 0.99039264
vt 0.54900857 0.99759236
vt 0.50000000 1.00000000
vt 0.45099143 0.99759236
vt 0.40245484 0.99039264
vt 0.35485766 0.97847017
vt 0.30865828 0.96193977
vt 0.26430163 0.94096063
vt 0.22221488 0.91573481
vt 0.18280336 0.88650523
vt 0.14644661 0.85355339
vt 0.11349477 0.81719664
vt 0.08426519 0.77778512
vt 0.05903937 0.73569837
vt 0.03806023 0.69134172
vt 0.02152983 0.64514234
vt 0.00960736 0.59754516
vt 0.00240764 0.54900857
vt 0.00000000 0.50000000
vt 0.00240764 0.45099143
vt 0.00960736 0.40245484
vt 0.02152983 0.35485766
vt 0.03806023 0.30865828
vt 0.05903937 0.26430163
vt 0.08426519 0.22221488
vt 0.11349477 0.18280336
vt 0.14644661 0.14644661
vt 0.18280336 0.11349477
vt 0.22221488 0.08426519
vt 0.26430163 0.05903937
vt 0.30865828 0.03806023
vt 0.35485766 0.02152983
vt 0.40245484 0.00960736
vt 0.45099143 0.00240764
vt 0.50000000 0.00000000
vt 0.54900857 0.00240764
vt 0.59754516 0.00960736
vt 0.64514234 0.02152983
vt 0.69134172 0.03806023
vt 0.73569837 0.05903937
vt 0.77778512 0.08426519
vt 0.81719664 0.11349477
vt 0.85355339 0.14644661
vt 0.88650523 0.18280336
vt 0.91573481 0.22221488
vt 0.94096063 0.26430163
vt 0.96193977 0.30865828
vt 0.97847017 0.35485766
vt 0.99039264 0.40245484
vt 0.99759236 0.45099143
vn 1.00000000 0.00000000 0.00000000
vn 1.00000000 0.00000000 0.00000000
vn 0.99518473 0.00000000 0.09801714
vn 0.99518473 0.00000000 0.09801714
vn 0.98078528 0.00000000 0.19509032
vn 0.98078528 0.00000000 0.19509032
vn 0.95694034 0.00000000 0.29028468
vn 0.95694034 0.00000000 0.29028468
vn 0.92387953 0.00000000 0.38268343
vn 0.92387953 0.00000000 0.38268343
vn 0.88192126 0.00000000 0.47139674
vn 0.88192126 0.00000000 0.47139674
vn 0.83146961 0.00000000 0.55557023
vn 0.83146961 0.00000000 0.55557023
vn 0.77301045 0.00000000 0.63439328
vn 0.77301045 0.00000000 0.63439328
vn 0.70710678 0.00000000 0.70710678
vn 0.70710678 0.00000000 0.70710678
vn 0.63439328 0.00000000 0.77301045
vn 0.63439328 0.00000000 0.77301045
vn 0.55557023 0.00000000 0.83146961
vn 0.55557023 0.00000000 0.83146961
vn 0.47139674 0.00000000 0.88192126
vn 0.47139674 0.00000000 0.88192126
vn 0.38268343 0.00000000 0.92387953
vn 0.38268343 0.00000000 0.92387953
vn 0.29028468 0.00000000 0.95694034
vn 0.29028468 0.00000000 0.95694034
vn 0.19509032 0.00000000 0.98078528
vn 0.19509032 0.00000000 0.98078528
vn 0.09801714 0.00000000 0.99518473
vn 0.09801714 0.00000000 0.99518473
vn 0.00000000 0.00000000 1.00000000
vn 0.00000000 0.00000000 1.00000000
vn -0.09801714 0.00000000 0.99518473
vn -0.09801714 0.00000000 0.99518473
vn -0.19509032 0.00000000 0.98078528
vn -0.19509032 0.00000000 0.98078528
vn -0.29028468 0.00000000 0.95694034
vn -0.29028468 0.00000000 0.95694034
vn -0.38268343 0.00000000 0.92387953
vn -0.38268343 0.00000000 0.92387953
vn -0.47139674 0.00000000 0.88192126
vn -0.47139674 0.00000000 0.88192126
vn -0.55557023 0.00000000 0.83146961
vn -0.55557023 0.00000000 0.83146961
vn -0.63439328 0.00000000 0.77301045
vn -0.63439328 0.00000000 0.77301045
vn -0.70710678 0.00000000 0.70710678
vn -0.70710678 0.00000000 0.70710678
vn -0.77301045 0.00000000 0.63439328
vn -0.77301045 0.00000000 0.63439328
vn -0.83146961 0.00000000 0.55557023
vn -0.83146961 0.00000000 0.55557023
vn -0.88192126 0.00000000 0.47139674
vn -0.88192126 0.00000000 0.47139674
vn -0.92387953 0.00000000 0.38268343
vn -0.92387953 0.00000000 0.38268343
vn -0.95694034 0.00000000 0.29028468
vn -0.95694034 0.00000000 0.29028468
vn -0.98078528 0.00000000 0.19509032
vn -0.98078528 0.00000000 0.19509032
vn -0.99518473 0.00000000 0.09801714
vn -0.99518473 0.00000000 0.09801714
vn -1.00000000 0.00000000 0.00000000
vn -1.00000000 0.00000000 0.00000000
vn -0.99518473 0.00000000 -0.09801714
vn -0.99518473 0.00000000 -0.09801714
vn -0.98078528 0.00000000 -0.19509032
vn -0.98078528 0.00000000 -0.19509032
vn -0.95694034 0.00000000 -0.29028468
vn -0.95694034 0.00000000 -0.29028468
vn -0.92387953 0.00000000 -0.38268343
vn -0.92387953 0.00000000 -0.38268343
vn -0.88192126 0.00000000 -0.47139674
vn -0.88192126 0.00000000 -0.47139674
vn -0.83146961 0.00000000 -0.55557023
vn -0.83146961 0.00000000 -0.55557023
vn -0.77301045 0.00000000 -0.63439328
vn -0.77301045 0.00000000 -0.63439328
vn -0.70710678 0.00000000 -0.70710678
vn -0.70710678 0.00000000 -0.70710678
vn -0.63439328 0.00000000 -0.77301045
vn -0.63439328 0.00000000 -0.77301045
vn -0.55557023 0.00000000 -0.83146961
vn -0.55557023 0.00000000 -0.83146961
vn -0.47139674 0.00000000 -0.88192126
vn -0.47139674 0.00000000 -0.88192126
vn -0.38268343 0.00000000 -0.92387953
vn -0.38268343 0.00000000 -0.92387953
vn -0.29028468 0.00000000 -0.95694034
vn -0.29028468 0.00000000 -0.95694034
vn -0.19509032 0.00000000 -0.98078528
vn -0.19509032 0.00000000 -0.98078528
vn -0.09801714 0.00000000 -0.99518473
vn -0.09801714 0.00000000 -0.99518473
vn -0.00000000 0.00000000 -1.00000000
vn -0.00000000 0.00000000 -1.00000000
vn 0.09801714 0.00000000 -0.99518473
vn 0.09801714 0.00000000 -0.99518473
vn 0.19509032 0.00000000 -0.98078528
vn 0.19509032 0.00000000 -0.98078528
vn 0.29028468 0.00000000 -0.95694034
vn 0.29028468 0.00000000 -0.95694034
vn 0.38268343 0.00000000 -0.92387953
vn 0.38268343 0.00000000 -0.92387953
vn 0.47139674 0.00000000 -0.88192126
vn 0.47139674 0.00000000 -0.88192126
vn 0.55557023 0.00000000 -0.83146961
vn 0.55557023 0.00000000 -0.83146961
vn 0.63439328 0.00000000 -0.77301045
vn 0.63439328 0.00000000 -0.77301045
vn 0.70710678 0.00000000 -0.70710678
vn 0.70710678 0.00000000 -0.70710678
vn 0.77301045 0.00000000 -0.63439328
vn 0.77301045 0.00000000 -0.63439328
vn 0.83146961 0.00000000 -0.55557023
vn 0.83146961 0.00000000 -0.55557023
vn 0.88192126 0.00000000 -0.47139674
vn 0.88192126 0.00000000 -0.47139674
vn 0.92387953 0.00000000 -0.38268343
vn 0.92387953 0.00000000 -0.38268343
vn 0.95694034 0.00000000 -0.29028468
vn 0.95694034 0.00000000 -0.29028468
vn 0.98078528 0.00000000 -0.19509032
vn 0.98078528 0.00000000 -0.19509032
vn 0.99518473 0.00000000 -0.09801714
vn 0.99518473 0.00000000 -0.09801714
vn 1.00000000 0.00000000 -0.00000000
vn 1.00000000 0.00000000 -0.00000000
vn 0.00000000 1.00000000 0.00000000
vn 0.00000000 1.00000000 0.00000000
vn 0.00000000 1.00000000 0.00000000
vn 0.00000000 1.00000000 0.00000000
vn 0.00000000 1.00000000 0.00000000
vn 0.00000000 1.00000000 0.00000000
vn 0.00000000 1.00000000 0.00000000
vn 0.00000000 1.00000000 0.00000000
vn 0.00000000 1.00000000 0.00000000
vn 0.00000000 1.00000000 0.00000000
vn 0.00000000 1.00000000 0.00000000
vn 0.00000000 1.00000000 0.00000000
vn 0.00000000 1.00000000 0.00000000
vn 0.00000000 1.00000000 0.00000000
vn 0.00000000 1.00000000 0.00000000
vn 0.00000000 1.00000000 0.00000000
vn 0.00000000 1.00000000 0.00000000
vn 0.00000000 1.00000000 0.00000000
vn 0.00000000 1.00000000 0.00000000
vn 0.00000000 1.00000000 0.00000000
vn 0.00000000 1.00000000 0.00000000
vn 0.00000000 1.00000000 0.00000000
vn 0.00000000 1.00000000 0.00000000
vn 0.00000000 1.00000000 0.00000000
vn 0.00000000 1.00000000 0.00000000
vn 0.00000000 1.00000000 0.00000000
vn 0.00000000 1.00000000 0.00000000
vn 0.00000000 1.00000000 0.00000000
vn 0.00000000 1.00000000 0.00000000
vn 0.00000000 1.00000000 0.00000000
vn 0.00000000 1.00000000 0.00000000
vn 0.00000000 1.00000000 0.00000000
vn 0.00000000 1.00000000 0.00000000
vn 0.00000000 1.00000000 0.00000000
vn 0.00000000 1.00000000 0.00000000
vn 0.00000000 1.00000000 0.00000000
vn 0.00000000 1.00000000 0.00000000
vn 0.00000000 1.00000000 0.00000000
vn 0.00000000 1.00000000 0.00000000
vn 0.00000000 1.00000000 0.00000000
vn 0.00000000 1.00000000 0.00000000
vn 0.00000000 1.00000000 0.00000000
vn 0.00000000 1.00000000 0.00000000
vn 0.00000000 1.00000000 0.00000000
vn 0.00000000 1.00000000 0.00000000
vn 0.00000000 1.00000000 0.00000000
vn 0.00000000 1.00000000 0.00000000
vn 0.00000000 1.00000000 0.00000000
vn 0.00000000 1.00000000 0.00000000
vn 0.00000000 1.00000000 0.00000000
vn 0.00000000 1.00000000 0.00000000
vn 0.00000000 1.00000000 0.00000000
vn 0.00000000 1.00000000 0.00000000
vn 0.00000000 1.00000000 0.00000000
vn 0.00000000 1.00000000 0.00000000
vn 0.00000000 1.00000000 0.00000000
vn 0.00000000 1.00000000 0.00000000
vn 0.00000000 1.00000000 0.00000000
vn 0.00000000 1.00000000 0.00000000
vn 0.00000000 1.00000000 0.00000000
vn 0.00000000 1.00000000 0.00000000
vn 0.00000000 1.00000000 0.00000000
vn 0.00000000 1.00000000 0.00000000
vn 0.00000000 1.00000000 0.00000000
vn 0.00000000 1.00000000 0.00000000
usemtl MissionMarker
s off
f 1/1/1 2/2/2 4/4/4
f 1/1/1 4/4/4 3/3/3
f 3/3/3 4/4/4 6/6/6
f 3/3/3 6/6/6 5/5/5
f 5/5/5 6/6/6 8/8/8
f 5/5/5 8/8/8 7/7/7
f 7/7/7 8/8/8 10/10/10
f 7/7/7 10/10/10 9/9/9
f 9/9/9 10/10/10 12/12/12
f 9/9/9 12/12/12 11/11/11
f 11/11/11 12/12/12 14/14/14
f 11/11/11 14/14/14 13/13/13
f 13/13/13 14/14/14 16/16/16
f 13/13/13 16/16/16 15/15/15
f 15/15/15 16/16/16 18/18/18
f 15/15/15 18/18/18 17/17/17
f 17/17/17 18/18/18 20/20/20
f 17/17/17 20/20/20 19/19/19
f 19/19/19 20/20/20 22/22/22
f 19/19/19 22/22/22 21/21/21
f 21/21/21 22/22/22 24/24/24
f 21/21/21 24/24/24 23/23/23
f 23/23/23 24/24/24 26/26/26
f 23/23/23 26/26/26 25/25/25
f 25/25/25 26/26/26 28/28/28
f 25/25/25 28/28/28 27/27/27
f 27/27/27 28/28/28 30/30/30
f 27/27/27 30/30/30 29/29/29
f 29/29/29 30/30/30 32/32/32
f 29/29/29 32/32/32 31/31/31
f 31/31/31 32/32/32 34/34/34
f 31/31/31 34/34/34 33/33/33
f 33/33/33 34/34/34 36/36/36
f 33/33/33 36/36/36 35/35/35
f 35/35/35 36/36/36 38/38/38
f 35/35/35 38/38/38 37/37/37
f 37/37/37 38/38/38 40/40/40
f 37/37/37 40/40/40 39/39/39
f 39/39/39 40/40/40 42/42/42
f 39/39/39 42/42/42 41/41/41
f 41/41/41 42/42/42 44/44/44
f 41/41/41 44/44/44 43/43/43
f 43/43/43 44/44/44 46/46/46
f 43/43/43 46/46/46 45/45/45
f 45/45/45 46/46/46 48/48/48
f 45/45/45 48/48/48 47/47/47
f 47/47/47 48/48/48 50/50/50
f 47/47/47 50/50/50 49/49/49
f 49/49/49 50/50/50 52/52/52
f 49/49/49 52/52/52 51/51/51
f 51/51/51 52/52/52 54/54/54
f 51/51/51 54/54/54 53/53/53
f 53/53/53 54/54/54 56/56/56
f 53/53/53 56/56/56 55/55/55
f 55/55/55 56/56/56 58/58/58
f 55/55/55 58/58/58 57/57/57
f 57/57/57 58/58/58 60/60/60
f 57/57/57 60/60/60 59/59/59
f 59/59/59 60/60/60 62/62/62
f 59/59/59 62/62/62 61/61/61
f 61/61/61 62/62/62 64/64/64
f 61/61/61 64/64/64 63/63/63
f 63/63/63 64/64/64 66/66/66
f 63/63/63 66/66/66 65/65/65
f 65/65/65 66/66/66 68/68/68
f 65/65/65 68/68/68 67/67/67
f 67/67/67 68/68/68 70/70/70
f 67/67/67 70/70/70 69/69/69
f 69/69/69 70/70/70 72/72/72
f 69/69/69 72/72/72 71/71/71
f 71/71/71 72/72/72 74/74/74
f 71/71/71 74/74/74 73/73/73
f 73/73/73 74/74/74 76/76/76
f 73/73/73 76/76/76 75/75/75
f 75/75/75 76/76/76 78/78/78
f 75/75/75 78/78/78 77/77/77
f 77/77/77 78/78/78 80/80/80
f 77/77/77 80/80/80 79/79/79
f 79/79/79 80/80/80 82/82/82
f 79/79/79 82/82/82 81/81/81
f 81/81/81 82/82/82 84/84/84
f 81/81/81 84/84/84 83/83/83
f 83/83/83 84/84/84 86/86/86
f 83/83/83 86/86/86 85/85/85
f 85/85/85 86/86/86 88/88/88
f 85/85/85 88/88/88 87/87/87
f 87/87/87 88/88/88 90/90/90
f 87/87/87 90/90/90 89/89/89
f 89/89/89 90/90/90 92/92/92
f 89/89/89 92/92/92 91/91/91
f 91/91/91 92/92/92 94/94/94
f 91/91/91 94/94/94 93/93/93
f 93/93/93 94/94/94 96/96/96
f 93/93/93 96/96/96 95/95/95
f 95/95/95 96/96/96 98/98/98
f 95/95/95 98/98/98 97/97/97
f 97/97/97 98/98/98 100/100/100
f 97/97/97 100/100/100 99/99/99
f 99/99/99 100/100/100 102/102/102
f 99/99/99 102/102/102 101/101/101
f 101/101/101 102/102/102 104/104/104
f 101/101/101 104/104/104 103/103/103
f 103/103/103 104/104/104 106/106/106
f 103/103/103 106/106/106 105/105/105
f 105/105/105 106/106/106 108/108/108
f 105/105/105 108/108/108 107/107/107
f 107/107/107 108/108/108 110/110/110
f 107/107/107 110/110/110 109/109/109
f 109/109/109 110/110/110 112/112/112
f 109/109/109 112/112/112 111/111/111
f 111/111/111 112/112/112 114/114/114
f 111/111/111 114/114/114 113/113/113
f 113/113/113 114/114/114 116/116/116
f 113/113/113 116/116/116 115/115/115
f 115/115/115 116/116/116 118/118/118
f 115/115/115 118/118/118 117/117/117
f 117/117/117 118/118/118 120/120/120
f 117/117/117 120/120/120 119/119/119
f 119/119/119 120/120/120 122/122/122
f 119/119/119 122/122/122 121/121/121
f 121/121/121 122/122/122 124/124/124
f 121/121/121 124/124/124 123/123/123
f 123/123/123 124/124/124 126/126/126
f 123/123/123 126/126/126 125/125/125
f 125/125/125 126/126/126 128/128/128
f 125/125/125 128/128/128 127/127/127
f 127/127/127 128/128/128 130/130/130
f 127/127/127 130/130/130 129/129/129
f 131/131/131 133/133/133 132/132/132
f 131/131/131 134/134/134 133/133/133
f 131/131/131 135/135/135 134/134/134
f 131/131/131 136/136/136 135/135/135
f 131/131/131 137/137/137 136/136/136
f 131/131/131 138/138/138 137/137/137
f 131/131/131 139/139/139 138/138/138
f 131/131/131 140/140/140 139/139/139
f 131/131/131 141/141/141 140/140/140
f 131/131/131 142/142/142 141/141/141
f 131/131/131 143/143/143 142/142/142
f 131/131/131 144/144/144 143/143/143
f 131/131/131 145/145/145 144/144/144
f 131/131/131 146/146/146 145/145/145
f 131/131/131 147/147/147 146/146/146
f 131/131/131 148/148/148 147/147/147
f 131/131/131 149/149/149 148/148/148
f 131/131/131 150/150/150 149/149/149
f 131/131/131 151/151/151 150/150/150
f 131/131/131 152/152/152 151/151/151
f 131/131/131 153/153/153 152/152/152
f 131/131/131 154/154/154 153/153/153
f 131/131/131 155/155/155 154/154/154
f 131/131/131 156/156/156 155/155/155
f 131/131/131 157/157/157 156/156/156
f 131/131/131 158/158/158 157/157/157
f 131/131/131 159/159/159 158/158/158
f 131/131/131 160/160/160 159/159/159
f 131/131/131 161/161/161 160/160/160
f 131/131/131 162/162/162 161/161/161
f 131/131/131 163/163/163 162/162/162
f 131/131/131 164/164/164 163/163/163
f 131/131/131 165/165/165 164/164/164
f 131/131/131 166/166/166 165/165/165
f 131/131/131 167/167/167 166/166/166
f 131/131/131 168/168/168 167/167/167
f 131/131/131 169/169/169 168/168/168
f 131/131/131 170/170/170 169/169/169
f 131/131/131 171/171/171 170/170/170
f 131/131/131 172/172/172 171/171/171
f 131/131/131 173/173/173 172/172/172
f 131/131/131 174/174/174 173/173/173
f 131/131/131 175/175/175 174/174/174
f 131/131/131 176/176/176 175/175/175
f 131/131/131 177/177/177 176/176/176
f 131/131/131 178/178/178 177/177/177
f 131/131/131 179/179/179 178/178/178
f 131/131/131 180/180/180 179/179/179
f 131/131/131 181/181/181 180/180/180
f 131/131/131 182/182/182 181/181/181
f 131/131/131 183/183/183 182/182/182
f 131/131/131 184/184/184 183/183/183
f 131/131/131 185/185/185 184/184/184
f 131/131/131 186/186/186 185/185/185
f 131/131/131 187/187/187 186/186/186
f 131/131/131 188/188/188 187/187/187
f 131/131/131 189/189/189 188/188/188
f 131/131/131 190/190/190 189/189/189
f 131/131/131 191/191/191 190/190/190
f 131/131/131 192/192/192 191/191/191
f 131/131/131 193/193/193 192/192/192
f 131/131/131 194/194/194 193/193/193
f 131/131/131 195/195/195 194/194/194
f 131/131/131 132/132/132 195/195/195
